<svg width="347" height="90" viewBox="0 0 347 90" fill="none" xmlns="http://www.w3.org/2000/svg">
<path d="M64.6482 26.3403C50.2455 26.3403 39.3857 33.2394 39.3857 42.3901V61.019C39.3857 70.1664 50.2455 77.0687 64.6482 77.0687C79.0509 77.0687 89.9107 70.1696 89.9107 61.019V42.3901C89.9107 33.2394 79.0509 26.3403 64.6482 26.3403ZM81.2387 61.0158C81.2387 63.9707 74.7766 68.265 64.6482 68.265C54.5198 68.265 48.0577 63.9707 48.0577 61.0158V42.3869C48.0577 39.4319 54.5198 35.1377 64.6482 35.1377C74.7766 35.1377 81.2387 39.4319 81.2387 42.3869V61.0158Z" fill="#161616"/>
<path d="M182.446 26.3403C168.043 26.3403 157.184 33.2394 157.184 42.3901V61.019C157.184 70.1664 168.043 77.0687 182.446 77.0687C196.849 77.0687 207.709 70.1696 207.709 61.019V42.3901C207.709 33.2394 196.849 26.3403 182.446 26.3403ZM199.037 61.0158C199.037 63.9707 192.574 68.265 182.446 68.265C172.318 68.265 165.856 63.9707 165.856 61.0158V42.3869C165.856 39.4319 172.318 35.1377 182.446 35.1377C192.574 35.1377 199.037 39.4319 199.037 42.3869V61.0158Z" fill="#161616"/>
<path d="M107.032 77.0655V42.3901C107.032 39.4352 113.494 35.1409 123.623 35.1409C133.751 35.1409 140.213 39.4352 140.213 42.3901V77.0655H148.885V42.3901C148.885 33.2394 138.025 26.3403 123.623 26.3403C109.22 26.3403 98.3604 33.2394 98.3604 42.3901V77.0655H107.032Z" fill="#161616"/>
<path d="M241.14 77.0912C229.02 77.0912 215.976 61.2085 215.976 26.3403H224.182C224.182 55.6037 234.098 68.766 241.143 68.766C246.871 68.766 258.104 55.9538 258.104 26.3403H266.311C266.311 63.3122 250.876 77.0912 241.146 77.0912H241.14Z" fill="#161616"/>
<path d="M297.383 42.9781L300.232 42.8721C299.263 42.8721 298.314 42.9106 297.383 42.9781Z" fill="#161616"/>
<path d="M316.389 29.8027C311.884 27.4484 305.976 26.1541 299.761 26.1541C293.546 26.1541 287.939 27.426 283.664 29.7321C278.136 32.7223 275.094 37.3828 275.094 42.8687H283.3C283.3 41.9982 283.3 39.3645 287.524 37.0809C290.589 35.4235 295.05 34.476 299.764 34.476C308.135 34.476 317.159 37.6847 317.159 42.8687H300.233L297.383 42.9747H297.361C284.665 43.9222 275.094 51.0492 275.094 59.9782C275.094 69.5753 286.134 77.088 300.233 77.088C314.331 77.088 325.365 69.5721 325.365 59.9782V42.8687C325.365 37.4566 322.18 32.8187 316.393 29.7995L316.389 29.8027ZM317.159 59.9815C317.159 64.0831 309.924 68.6697 300.233 68.6697C290.541 68.6697 283.3 64.0831 283.3 59.9815C283.3 56.2975 289.148 52.2249 297.361 51.4315C298.286 51.3416 299.248 51.2966 300.233 51.2966C309.855 51.2966 317.061 55.8222 317.152 59.9012C317.159 59.9301 317.159 59.9525 317.159 59.9846V59.9815Z" fill="#161616"/>
<path d="M32.3344 5.37671C32.3344 14.8839 24.7389 22.5892 15.3672 22.5892C24.7389 22.5892 32.3344 30.2944 32.3344 39.8016C32.3344 30.2944 39.9299 22.5892 49.3016 22.5892C39.9299 22.5892 32.3344 14.8839 32.3344 5.37671Z" fill="#161616"/>
</svg>
