<svg width="250" height="250" viewBox="0 0 250 250" fill="none" xmlns="http://www.w3.org/2000/svg">
<rect width="250" height="250" fill="#161616"/>
<path d="M149.165 94.9333C120.184 94.9333 98.3311 108.816 98.3311 127.23V164.715C98.3311 183.122 120.184 197.011 149.165 197.011C178.147 197.011 200 183.129 200 164.715V127.23C200 108.816 178.147 94.9333 149.165 94.9333ZM182.55 164.709C182.55 170.655 169.546 179.296 149.165 179.296C128.785 179.296 115.781 170.655 115.781 164.709V127.223C115.781 121.277 128.785 112.636 149.165 112.636C169.546 112.636 182.55 121.277 182.55 127.223V164.709Z" fill="#E6E3E0"/>
<path d="M84.1441 52.7494C84.1441 71.8802 68.8601 87.3852 50.002 87.3852C68.8601 87.3852 84.1441 102.89 84.1441 122.021C84.1441 102.89 99.4282 87.3852 118.286 87.3852C99.4282 87.3852 84.1441 71.8802 84.1441 52.7494Z" fill="#E6E3E0"/>
</svg>
